<svg width="1799" height="990" viewBox="0 0 1799 990" fill="none" xmlns="http://www.w3.org/2000/svg">
<path d="M1700.98 963H1674.02C1668.64 963 1664.18 958.965 1663.65 953.618L1660.88 937.059C1655.69 935.445 1650.65 933.348 1645.83 930.813L1631.96 940.718C1630.3 942.092 1627.96 942.932 1625.55 942.932C1622.77 942.932 1620.15 941.846 1618.18 939.874L1599.12 920.815C1595.32 917.009 1595.02 911.003 1598.43 906.839L1608.19 893.172C1605.64 888.345 1603.55 883.296 1601.94 878.119L1585.14 875.315C1580.04 874.825 1576 870.366 1576 864.975V838.025C1576 832.641 1580.03 828.182 1585.38 827.648L1601.94 824.877C1603.56 819.677 1605.66 814.633 1608.18 809.828L1598.28 795.958C1595.02 791.997 1595.31 785.991 1599.12 782.188L1618.18 763.122C1621.86 759.456 1628.15 759.15 1632.15 762.422L1645.84 772.184C1650.64 769.652 1655.68 767.559 1660.88 765.942L1663.68 749.142C1664.18 744.035 1668.64 740 1674.02 740H1700.98C1706.36 740 1710.81 744.031 1711.36 749.374L1714.12 765.942C1719.32 767.559 1724.36 769.652 1729.17 772.184L1743.04 762.279C1744.7 760.908 1747.04 760.071 1749.44 760.071C1752.23 760.071 1754.84 761.155 1756.81 763.122L1775.87 782.188C1779.67 785.98 1779.98 791.982 1776.58 796.15L1766.82 809.828C1769.35 814.633 1771.44 819.678 1773.06 824.877L1789.86 827.681C1794.97 828.182 1799 832.641 1799 838.025V864.975C1799 870.366 1794.97 874.821 1789.61 875.341L1773.06 878.108C1771.44 883.311 1769.35 888.359 1766.82 893.164L1776.72 907.031C1779.98 911.006 1779.68 917.016 1775.87 920.812L1756.81 939.866C1753.15 943.529 1746.85 943.853 1742.84 940.563L1729.17 930.809C1724.35 933.348 1719.3 935.444 1714.12 937.055L1711.32 953.861C1710.81 958.965 1706.36 963 1700.98 963ZM1645.56 922.787C1646.18 922.787 1646.8 922.942 1647.36 923.259C1652.98 926.406 1658.96 928.886 1665.14 930.636C1666.51 931.023 1667.54 932.169 1667.77 933.576L1670.95 952.649C1671.13 954.425 1672.47 955.63 1674.02 955.63H1700.98C1702.53 955.63 1703.86 954.429 1704.01 952.892L1707.23 933.576C1707.46 932.172 1708.49 931.026 1709.86 930.639C1716.03 928.893 1722.01 926.413 1727.63 923.262C1728.87 922.562 1730.41 922.647 1731.57 923.48L1747.31 934.722C1748.9 936.001 1750.51 935.735 1751.59 934.663L1770.65 915.602C1771.77 914.485 1771.86 912.727 1770.87 911.508L1759.47 895.578C1758.64 894.417 1758.56 892.881 1759.25 891.632C1762.4 886.038 1764.88 880.061 1766.62 873.863C1767.01 872.489 1768.16 871.465 1769.57 871.229L1788.65 868.049C1790.42 867.864 1791.63 866.534 1791.63 864.983V838.032C1791.63 836.481 1790.43 835.143 1788.89 834.992L1769.57 831.779C1768.16 831.543 1767.02 830.519 1766.63 829.144C1764.88 822.946 1762.4 816.969 1759.26 811.383C1758.56 810.134 1758.64 808.597 1759.48 807.437L1770.73 791.692C1771.86 790.284 1771.77 788.53 1770.66 787.417L1751.6 768.348C1750.53 767.275 1748.68 767.183 1747.52 768.138L1731.57 779.535C1730.41 780.368 1728.87 780.449 1727.63 779.752C1722.03 776.609 1716.06 774.129 1709.86 772.375C1708.49 771.992 1707.47 770.842 1707.23 769.435L1704.06 750.362C1703.86 748.549 1702.55 747.37 1700.98 747.37H1674.02C1672.44 747.37 1671.14 748.545 1670.98 750.108L1667.77 769.42C1667.54 770.828 1666.51 771.974 1665.14 772.361C1658.94 774.118 1652.96 776.595 1647.38 779.738C1646.13 780.434 1644.59 780.353 1643.43 779.52L1627.68 768.27C1626.1 767.003 1624.47 767.257 1623.4 768.337L1604.34 787.398C1603.22 788.511 1603.14 790.265 1604.13 791.478L1615.52 807.422C1616.36 808.586 1616.44 810.123 1615.74 811.369C1612.6 816.955 1610.12 822.932 1608.36 829.133C1607.98 830.504 1606.83 831.529 1605.42 831.764L1586.35 834.944C1584.55 835.136 1583.37 836.444 1583.37 838.025V864.976C1583.37 866.553 1584.54 867.858 1586.1 868.009L1605.42 871.222C1606.83 871.454 1607.97 872.482 1608.36 873.856C1610.1 880.021 1612.58 886.002 1615.74 891.632C1616.43 892.877 1616.35 894.41 1615.52 895.571L1604.28 911.309C1603.13 912.724 1603.22 914.478 1604.33 915.595L1623.39 934.653C1624.48 935.732 1626.32 935.828 1627.48 934.863L1643.42 923.473C1644.06 923.019 1644.81 922.787 1645.56 922.787ZM1687.5 895.608C1663.18 895.608 1643.38 875.82 1643.38 851.496C1643.38 827.169 1663.18 807.378 1687.5 807.378C1711.83 807.378 1731.62 827.169 1731.62 851.496C1731.62 875.816 1711.83 895.608 1687.5 895.608ZM1687.5 814.747C1667.24 814.747 1650.75 831.234 1650.75 851.496C1650.75 871.756 1667.24 888.238 1687.5 888.238C1707.76 888.238 1724.25 871.756 1724.25 851.496C1724.25 831.233 1707.76 814.747 1687.5 814.747Z" fill="#F8991D"/>
<path d="M1534.86 809H1519.14C1516 809 1513.4 806.648 1513.1 803.531L1511.48 793.877C1508.46 792.936 1505.52 791.714 1502.71 790.236L1494.62 796.01C1493.65 796.812 1492.29 797.301 1490.89 797.301C1489.26 797.301 1487.74 796.668 1486.59 795.518L1475.48 784.408C1473.26 782.189 1473.09 778.688 1475.08 776.26L1480.76 768.293C1479.28 765.479 1478.06 762.536 1477.12 759.518L1467.33 757.883C1464.35 757.598 1462 754.998 1462 751.856V736.144C1462 733.006 1464.35 730.407 1467.47 730.095L1477.12 728.48C1478.07 725.449 1479.29 722.508 1480.76 719.707L1474.99 711.621C1473.09 709.312 1473.26 705.811 1475.48 703.594L1486.59 692.479C1488.73 690.342 1492.4 690.164 1494.73 692.071L1502.71 697.762C1505.51 696.286 1508.45 695.066 1511.48 694.123L1513.11 684.33C1513.4 681.352 1516.01 679 1519.14 679H1534.86C1537.99 679 1540.59 681.35 1540.91 684.465L1542.52 694.123C1545.55 695.066 1548.49 696.286 1551.29 697.762L1559.38 691.988C1560.34 691.189 1561.71 690.701 1563.11 690.701C1564.73 690.701 1566.26 691.332 1567.41 692.479L1578.52 703.594C1580.73 705.804 1580.91 709.303 1578.93 711.733L1573.24 719.707C1574.72 722.508 1575.93 725.449 1576.88 728.48L1586.67 730.115C1589.65 730.407 1592 733.006 1592 736.144V751.856C1592 754.998 1589.65 757.595 1586.53 757.898L1576.88 759.511C1575.93 762.545 1574.71 765.488 1573.24 768.289L1579.01 776.372C1580.91 778.69 1580.74 782.193 1578.51 784.406L1567.41 795.514C1565.27 797.649 1561.6 797.838 1559.26 795.92L1551.29 790.234C1548.48 791.714 1545.54 792.936 1542.52 793.875L1540.88 803.673C1540.59 806.648 1537.99 809 1534.86 809ZM1502.55 785.558C1502.91 785.558 1503.28 785.648 1503.6 785.833C1506.88 787.667 1510.36 789.113 1513.97 790.133C1514.77 790.359 1515.36 791.027 1515.5 791.847L1517.35 802.966C1517.46 804.001 1518.24 804.704 1519.14 804.704H1534.86C1535.76 804.704 1536.54 804.003 1536.63 803.108L1538.5 791.847C1538.64 791.029 1539.24 790.361 1540.03 790.135C1543.63 789.117 1547.12 787.671 1550.39 785.835C1551.12 785.426 1552.02 785.476 1552.69 785.961L1561.87 792.515C1562.79 793.261 1563.73 793.106 1564.36 792.481L1575.47 781.369C1576.13 780.718 1576.18 779.693 1575.6 778.982L1568.96 769.696C1568.47 769.019 1568.42 768.123 1568.83 767.395C1570.66 764.134 1572.11 760.65 1573.13 757.037C1573.35 756.236 1574.02 755.639 1574.84 755.501L1585.96 753.647C1587 753.54 1587.7 752.764 1587.7 751.86V736.149C1587.7 735.244 1587 734.465 1586.11 734.376L1574.84 732.503C1574.02 732.366 1573.36 731.769 1573.13 730.968C1572.11 727.354 1570.66 723.87 1568.83 720.614C1568.43 719.885 1568.47 718.989 1568.96 718.313L1575.52 709.134C1576.18 708.314 1576.13 707.291 1575.48 706.642L1564.37 695.526C1563.74 694.9 1562.67 694.847 1561.99 695.403L1552.69 702.047C1552.02 702.533 1551.12 702.58 1550.4 702.174C1547.13 700.342 1543.65 698.896 1540.04 697.873C1539.24 697.65 1538.64 696.98 1538.5 696.159L1536.65 685.041C1536.54 683.984 1535.77 683.296 1534.86 683.296H1519.14C1518.22 683.296 1517.46 683.982 1517.37 684.892L1515.5 696.151C1515.37 696.971 1514.77 697.639 1513.97 697.865C1510.35 698.89 1506.87 700.333 1503.61 702.165C1502.88 702.572 1501.99 702.524 1501.31 702.039L1492.13 695.48C1491.2 694.741 1490.26 694.89 1489.63 695.519L1478.52 706.631C1477.87 707.28 1477.82 708.303 1478.4 709.009L1485.04 718.304C1485.53 718.983 1485.57 719.879 1485.17 720.605C1483.34 723.862 1481.89 727.346 1480.87 730.961C1480.64 731.76 1479.97 732.358 1479.15 732.495L1468.03 734.349C1466.98 734.461 1466.3 735.223 1466.3 736.145V751.856C1466.3 752.775 1466.98 753.536 1467.89 753.624L1479.15 755.497C1479.97 755.632 1480.64 756.232 1480.86 757.033C1481.88 760.627 1483.33 764.113 1485.17 767.395C1485.57 768.121 1485.52 769.015 1485.04 769.692L1478.48 778.866C1477.81 779.691 1477.87 780.714 1478.52 781.365L1489.63 792.475C1490.26 793.104 1491.33 793.16 1492.01 792.597L1501.3 785.957C1501.68 785.693 1502.11 785.558 1502.55 785.558ZM1527 769.713C1512.82 769.713 1501.28 758.178 1501.28 743.998C1501.28 729.816 1512.82 718.278 1527 718.278C1541.18 718.278 1552.72 729.816 1552.72 743.998C1552.72 758.175 1541.18 769.713 1527 769.713ZM1527 722.575C1515.19 722.575 1505.58 732.186 1505.58 743.998C1505.58 755.808 1515.19 765.417 1527 765.417C1538.81 765.417 1548.42 755.808 1548.42 743.998C1548.42 732.185 1538.81 722.575 1527 722.575Z" fill="#97522F"/>
<path d="M1360.94 849H1354.05C1352.68 849 1351.54 847.969 1351.4 846.602L1350.7 842.369C1349.37 841.957 1348.08 841.421 1346.85 840.773L1343.3 843.305C1342.88 843.656 1342.28 843.871 1341.67 843.871C1340.95 843.871 1340.29 843.593 1339.78 843.089L1334.91 838.217C1333.94 837.244 1333.86 835.709 1334.73 834.645L1337.23 831.152C1336.58 829.918 1336.04 828.627 1335.63 827.304L1331.34 826.587C1330.03 826.462 1329 825.322 1329 823.944V817.056C1329 815.679 1330.03 814.54 1331.4 814.403L1335.63 813.695C1336.04 812.366 1336.58 811.077 1337.23 809.848L1334.7 806.303C1333.86 805.291 1333.94 803.756 1334.91 802.783L1339.78 797.91C1340.72 796.973 1342.33 796.895 1343.35 797.731L1346.85 800.226C1348.08 799.579 1349.37 799.044 1350.7 798.631L1351.41 794.337C1351.54 793.031 1352.68 792 1354.06 792H1360.95C1362.32 792 1363.46 793.03 1363.6 794.396L1364.31 798.631C1365.63 799.044 1366.92 799.579 1368.15 800.226L1371.7 797.695C1372.12 797.344 1372.72 797.13 1373.33 797.13C1374.04 797.13 1374.71 797.407 1375.22 797.91L1380.09 802.783C1381.06 803.753 1381.14 805.287 1380.27 806.352L1377.77 809.848C1378.42 811.077 1378.96 812.366 1379.37 813.695L1383.66 814.412C1384.97 814.54 1386 815.679 1386 817.056V823.944C1386 825.322 1384.97 826.461 1383.6 826.594L1379.37 827.301C1378.96 828.631 1378.42 829.921 1377.77 831.15L1380.31 834.694C1381.14 835.71 1381.06 837.246 1380.09 838.216L1375.22 843.087C1374.28 844.023 1372.67 844.106 1371.64 843.265L1368.15 840.772C1366.92 841.421 1365.63 841.957 1364.3 842.368L1363.59 846.664C1363.46 847.969 1362.32 849 1360.94 849ZM1346.78 838.721C1346.94 838.721 1347.1 838.761 1347.24 838.842C1348.68 839.646 1350.2 840.28 1351.79 840.728C1352.14 840.826 1352.4 841.119 1352.46 841.479L1353.27 846.354C1353.32 846.808 1353.66 847.116 1354.05 847.116H1360.94C1361.34 847.116 1361.68 846.809 1361.72 846.416L1362.54 841.479C1362.6 841.12 1362.86 840.827 1363.22 840.728C1364.79 840.282 1366.32 839.648 1367.76 838.843C1368.07 838.664 1368.47 838.686 1368.76 838.898L1372.79 841.772C1373.19 842.099 1373.61 842.031 1373.88 841.757L1378.75 836.885C1379.04 836.599 1379.06 836.15 1378.81 835.838L1375.9 831.767C1375.68 831.47 1375.66 831.077 1375.84 830.758C1376.65 829.328 1377.28 827.8 1377.72 826.216C1377.82 825.865 1378.12 825.603 1378.48 825.543L1383.35 824.73C1383.81 824.683 1384.12 824.343 1384.12 823.946V817.057C1384.12 816.661 1383.81 816.319 1383.42 816.28L1378.48 815.459C1378.12 815.399 1377.83 815.137 1377.73 814.786C1377.28 813.201 1376.65 811.674 1375.84 810.246C1375.66 809.927 1375.68 809.534 1375.9 809.237L1378.77 805.213C1379.06 804.853 1379.04 804.404 1378.76 804.12L1373.88 799.246C1373.61 798.972 1373.14 798.948 1372.84 799.192L1368.77 802.105C1368.47 802.318 1368.08 802.339 1367.76 802.161C1366.33 801.358 1364.8 800.724 1363.22 800.275C1362.87 800.177 1362.6 799.883 1362.54 799.524L1361.73 794.649C1361.68 794.185 1361.35 793.884 1360.94 793.884H1354.05C1353.65 793.884 1353.32 794.184 1353.28 794.584L1352.46 799.52C1352.4 799.88 1352.14 800.173 1351.79 800.272C1350.2 800.721 1348.67 801.354 1347.24 802.157C1346.92 802.335 1346.53 802.314 1346.24 802.102L1342.21 799.226C1341.8 798.902 1341.39 798.967 1341.12 799.243L1336.24 804.115C1335.96 804.4 1335.94 804.848 1336.19 805.158L1339.1 809.233C1339.32 809.531 1339.34 809.924 1339.16 810.242C1338.36 811.67 1337.72 813.198 1337.27 814.783C1337.17 815.133 1336.88 815.395 1336.52 815.456L1331.65 816.268C1331.18 816.317 1330.88 816.652 1330.88 817.056V823.945C1330.88 824.348 1331.18 824.681 1331.58 824.72L1336.52 825.541C1336.88 825.6 1337.17 825.863 1337.27 826.214C1337.72 827.79 1338.35 829.319 1339.16 830.758C1339.34 831.076 1339.31 831.468 1339.1 831.765L1336.23 835.788C1335.93 836.149 1335.96 836.597 1336.24 836.883L1341.11 841.754C1341.39 842.03 1341.86 842.055 1342.16 841.808L1346.23 838.897C1346.4 838.781 1346.59 838.721 1346.78 838.721ZM1357.5 831.774C1351.28 831.774 1346.22 826.716 1346.22 820.499C1346.22 814.281 1351.28 809.222 1357.5 809.222C1363.72 809.222 1368.78 814.281 1368.78 820.499C1368.78 826.715 1363.72 831.774 1357.5 831.774ZM1357.5 811.106C1352.32 811.106 1348.11 815.32 1348.11 820.499C1348.11 825.677 1352.32 829.89 1357.5 829.89C1362.68 829.89 1366.89 825.677 1366.89 820.499C1366.89 815.32 1362.68 811.106 1357.5 811.106Z" fill="#F8991D"/>
<path d="M293.043 210H280.955C278.541 210 276.542 208.191 276.304 205.793L275.065 198.367C272.736 197.643 270.474 196.703 268.313 195.566L262.093 200.008C261.35 200.624 260.299 201.001 259.222 201.001C257.972 201.001 256.799 200.514 255.915 199.63L247.369 191.083C245.662 189.376 245.53 186.683 247.058 184.816L251.434 178.687C250.293 176.522 249.355 174.259 248.633 171.937L241.098 170.679C238.811 170.46 237 168.46 237 166.043V153.957C237 151.543 238.809 149.544 241.207 149.304L248.633 148.061C249.358 145.73 250.298 143.468 251.432 141.313L246.992 135.093C245.528 133.317 245.66 130.624 247.369 128.918L255.917 120.369C257.564 118.725 260.385 118.588 262.179 120.055L268.316 124.432C270.469 123.297 272.732 122.358 275.065 121.633L276.319 114.1C276.542 111.809 278.543 110 280.957 110H293.044C295.455 110 297.455 111.808 297.698 114.204L298.939 121.633C301.269 122.358 303.531 123.297 305.685 124.432L311.907 119.991C312.649 119.376 313.7 119.001 314.777 119.001C316.026 119.001 317.199 119.486 318.082 120.369L326.628 128.918C328.333 130.619 328.47 133.31 326.945 135.179L322.568 141.313C323.705 143.468 324.642 145.73 325.367 148.061L332.902 149.319C335.192 149.544 337 151.543 337 153.957V166.043C337 168.46 335.191 170.458 332.79 170.691L325.367 171.932C324.642 174.265 323.703 176.529 322.568 178.683L327.009 184.902C328.472 186.684 328.335 189.38 326.626 191.082L318.082 199.626C316.441 201.269 313.613 201.414 311.814 199.938L305.685 195.564C303.524 196.703 301.262 197.643 298.939 198.365L297.679 205.902C297.455 208.191 295.455 210 293.043 210ZM268.194 191.967C268.472 191.967 268.751 192.037 269.002 192.179C271.52 193.59 274.2 194.702 276.975 195.487C277.59 195.66 278.049 196.174 278.155 196.806L279.577 205.358C279.66 206.155 280.26 206.695 280.955 206.695H293.043C293.738 206.695 294.337 206.157 294.404 205.467L295.847 196.806C295.951 196.176 296.412 195.662 297.027 195.489C299.794 194.705 302.475 193.593 304.995 192.18C305.551 191.867 306.242 191.905 306.763 192.278L313.82 197.319C314.532 197.893 315.258 197.774 315.74 197.293L324.288 188.745C324.79 188.245 324.83 187.456 324.384 186.909L319.275 179.766C318.901 179.245 318.865 178.557 319.177 177.996C320.588 175.488 321.699 172.808 322.482 170.028C322.655 169.412 323.169 168.953 323.802 168.847L332.357 167.421C333.153 167.338 333.693 166.742 333.693 166.046V153.96C333.693 153.265 333.155 152.665 332.466 152.597L323.804 151.156C323.171 151.051 322.658 150.591 322.483 149.975C321.7 147.196 320.588 144.515 319.179 142.01C318.866 141.45 318.903 140.761 319.276 140.241L324.321 133.18C324.832 132.549 324.79 131.762 324.291 131.263L315.743 122.712C315.263 122.231 314.435 122.19 313.913 122.618L306.764 127.729C306.244 128.102 305.553 128.138 304.996 127.826C302.486 126.417 299.806 125.305 297.028 124.518C296.414 124.346 295.954 123.831 295.849 123.199L294.424 114.647C294.337 113.833 293.75 113.305 293.043 113.305H280.955C280.247 113.305 279.662 113.832 279.592 114.533L278.155 123.193C278.05 123.824 277.59 124.338 276.975 124.511C274.192 125.3 271.512 126.41 269.009 127.82C268.447 128.132 267.758 128.096 267.239 127.722L260.175 122.677C259.464 122.109 258.736 122.223 258.255 122.707L249.707 131.255C249.208 131.754 249.17 132.541 249.616 133.084L254.724 140.234C255.097 140.756 255.133 141.445 254.821 142.004C253.413 144.509 252.301 147.189 251.513 149.97C251.341 150.585 250.826 151.044 250.194 151.15L241.642 152.576C240.832 152.662 240.305 153.249 240.305 153.958V166.043C240.305 166.75 240.83 167.335 241.529 167.403L250.193 168.844C250.824 168.948 251.338 169.409 251.511 170.025C252.293 172.79 253.405 175.472 254.82 177.996C255.132 178.555 255.096 179.242 254.722 179.763L249.681 186.82C249.165 187.455 249.205 188.241 249.705 188.742L258.253 197.288C258.739 197.772 259.564 197.815 260.084 197.382L267.232 192.275C267.52 192.071 267.857 191.967 268.194 191.967ZM287.002 179.779C276.092 179.779 267.217 170.906 267.217 159.998C267.217 149.089 276.092 140.214 287.002 140.214C297.911 140.214 306.784 149.089 306.784 159.998C306.783 170.904 297.909 179.779 287.002 179.779ZM287.002 143.519C277.915 143.519 270.522 150.912 270.522 159.998C270.522 169.083 277.915 176.474 287.002 176.474C296.087 176.474 303.479 169.083 303.479 159.998C303.478 150.912 296.086 143.519 287.002 143.519Z" fill="#97522F"/>
<path d="M72.8557 130H57.142C54.0035 130 51.4044 127.648 51.0951 124.531L49.4841 114.877C46.4574 113.936 43.5167 112.714 40.707 111.236L32.6215 117.01C31.6548 117.812 30.2887 118.301 28.888 118.301C27.2639 118.301 25.7389 117.668 24.5895 116.518L13.4794 105.408C11.2605 103.189 11.0887 99.6877 13.0756 97.2604L18.7638 89.293C17.2815 86.4791 16.0614 83.536 15.1227 80.5178L5.32724 78.8832C2.35423 78.5977 0 75.9984 0 72.8557V57.1443C0 54.0059 2.35211 51.4067 5.46913 51.0951L15.1227 49.4797C16.0656 46.4487 17.2879 43.5079 18.7616 40.7068L12.9896 32.6213C11.0863 30.3121 11.2582 26.8108 13.4794 24.5938L24.5917 13.4794C26.7335 11.3421 30.4002 11.1639 32.733 13.0714L40.7112 18.7618C43.5103 17.2862 46.451 16.066 49.4841 15.1229L51.1144 5.32958C51.4046 2.35211 54.0059 0 57.1443 0H72.8578C75.992 0 78.5912 2.34998 78.907 5.46489L80.5203 15.1229C83.5492 16.0658 86.4899 17.2862 89.2911 18.7618L97.3787 12.9877C98.3433 12.1886 99.7096 11.7008 101.11 11.7008C102.734 11.7008 104.259 12.3324 105.406 13.4794L116.516 24.5938C118.733 26.8042 118.911 30.3034 116.929 32.733L111.238 40.707C112.716 43.5082 113.934 46.4489 114.877 49.4799L124.673 51.1146C127.65 51.4067 130 54.0059 130 57.1443V72.8557C130 75.9984 127.648 78.5954 124.526 78.8981L114.877 80.5114C113.934 83.5445 112.714 86.4876 111.238 89.2885L117.012 97.3721C118.913 99.6898 118.735 103.193 116.514 105.406L105.406 116.514C103.273 118.649 99.5974 118.838 97.2583 116.92L89.2909 111.234C86.481 112.714 83.5405 113.936 80.5201 114.875L78.8832 124.673C78.5912 127.648 75.992 130 72.8557 130ZM40.5521 106.558C40.913 106.558 41.2761 106.648 41.6026 106.833C44.8763 108.667 48.3604 110.113 51.9673 111.133C52.7664 111.359 53.3635 112.027 53.5009 112.847L55.3505 123.966C55.458 125.001 56.2377 125.704 57.142 125.704H72.8557C73.7599 125.704 74.5376 125.003 74.6257 124.108L76.501 112.847C76.6363 112.029 77.2355 111.361 78.0348 111.135C81.6328 110.117 85.1171 108.671 88.393 106.835C89.1169 106.426 90.015 106.476 90.6916 106.961L99.8659 113.515C100.792 114.261 101.735 114.106 102.362 113.481L113.474 102.369C114.127 101.718 114.179 100.693 113.599 99.9823L106.957 90.6958C106.471 90.0191 106.424 89.1235 106.83 88.3953C108.664 85.1343 110.108 81.6502 111.126 78.037C111.352 77.2357 112.02 76.6386 112.843 76.5012L123.963 74.6472C124.999 74.5397 125.701 73.7644 125.701 72.8599V57.1486C125.701 56.2443 125.001 55.4645 124.105 55.3764L112.845 53.5033C112.022 53.3658 111.356 52.7687 111.129 51.9675C110.11 48.3543 108.664 44.87 106.832 41.6136C106.426 40.8852 106.474 39.9894 106.959 39.3129L113.517 30.1341C114.181 29.3135 114.127 28.2909 113.479 27.6422L102.367 16.5255C101.742 15.9004 100.665 15.8468 99.9864 16.4032L90.6937 23.0472C90.0169 23.5328 89.119 23.5799 88.3953 23.174C85.1324 21.3417 81.6479 19.8959 78.037 18.8734C77.2378 18.6499 76.6407 17.9797 76.5031 17.1592L74.6514 6.04054C74.5376 4.98355 73.775 4.29637 72.8557 4.29637H57.142C56.2205 4.29637 55.4601 4.98163 55.3698 5.89248L53.5009 17.1507C53.3656 17.9712 52.7664 18.6393 51.9673 18.8649C48.3498 19.8896 44.8655 21.3332 41.6113 23.1655C40.881 23.5716 39.9852 23.5243 39.3106 23.0387L30.1273 16.4805C29.2035 15.7415 28.2563 15.8897 27.6312 16.5191L16.5191 27.6314C15.8704 28.2801 15.8209 29.3027 16.401 30.0094L23.0408 39.3044C23.5264 39.9831 23.5735 40.8788 23.1676 41.6051C21.3374 44.8617 19.8917 48.3458 18.867 51.9611C18.6435 52.7602 17.9733 53.3576 17.1528 53.495L6.03417 55.3488C4.98142 55.4605 4.29637 56.2231 4.29637 57.1448V72.8561C4.29637 73.7754 4.97951 74.5359 5.88802 74.6238L17.1507 76.4969C17.9712 76.6325 18.6393 77.2317 18.8649 78.0327C19.8809 81.6266 21.3266 85.113 23.1655 88.3953C23.5716 89.1214 23.5243 90.015 23.0387 90.6918L16.4847 99.8663C15.8145 100.691 15.8659 101.714 16.5168 102.365L27.629 113.475C28.2606 114.104 29.3326 114.16 30.0092 113.597L39.3021 106.957C39.6757 106.693 40.1139 106.558 40.5521 106.558ZM65.0021 90.713C50.8202 90.713 39.2827 79.1776 39.2827 64.9979C39.2827 50.816 50.8202 39.2785 65.0021 39.2785C79.1842 39.2785 90.7194 50.816 90.7194 64.9979C90.7173 79.1753 79.1819 90.713 65.0021 90.713ZM65.0021 43.5746C53.1898 43.5746 43.5789 53.1855 43.5789 64.9979C43.5789 76.8083 53.1895 86.4167 65.0021 86.4167C76.8126 86.4167 86.4232 76.8083 86.4232 64.9979C86.4211 53.1853 76.8124 43.5746 65.0021 43.5746Z" fill="#97522F"/>
<path d="M370.065 173H362.934C361.509 173 360.33 171.933 360.189 170.518L359.458 166.137C358.084 165.71 356.75 165.155 355.475 164.484L351.805 167.105C351.366 167.468 350.746 167.691 350.111 167.691C349.374 167.691 348.682 167.403 348.16 166.881L343.118 161.839C342.111 160.832 342.033 159.243 342.934 158.141L345.516 154.525C344.843 153.248 344.289 151.913 343.863 150.543L339.418 149.801C338.068 149.671 337 148.492 337 147.065V139.935C337 138.51 338.067 137.331 339.482 137.189L343.863 136.456C344.291 135.081 344.846 133.746 345.515 132.475L342.895 128.805C342.031 127.757 342.109 126.168 343.118 125.162L348.161 120.118C349.133 119.148 350.797 119.067 351.856 119.932L355.477 122.515C356.747 121.845 358.082 121.292 359.458 120.863L360.198 116.419C360.33 115.067 361.51 114 362.935 114H370.066C371.489 114 372.668 115.067 372.812 116.48L373.544 120.863C374.918 121.291 376.253 121.845 377.524 122.515L381.195 119.894C381.633 119.532 382.253 119.31 382.888 119.31C383.625 119.31 384.318 119.597 384.838 120.118L389.88 125.162C390.887 126.165 390.967 127.753 390.068 128.856L387.485 132.475C388.156 133.746 388.709 135.081 389.137 136.456L393.582 137.198C394.933 137.331 396 138.51 396 139.935V147.065C396 148.492 394.933 149.67 393.516 149.808L389.137 150.54C388.709 151.916 388.155 153.252 387.485 154.523L390.106 158.192C390.968 159.244 390.887 160.834 389.879 161.838L384.838 166.879C383.87 167.848 382.202 167.934 381.14 167.064L377.524 164.483C376.249 165.155 374.915 165.709 373.544 166.136L372.801 170.582C372.668 171.933 371.489 173 370.065 173ZM355.404 162.361C355.568 162.361 355.733 162.402 355.881 162.486C357.367 163.318 358.948 163.974 360.585 164.437C360.948 164.54 361.219 164.843 361.281 165.215L362.121 170.262C362.169 170.731 362.523 171.05 362.934 171.05H370.065C370.476 171.05 370.829 170.732 370.869 170.326L371.72 165.215C371.781 164.844 372.053 164.541 372.416 164.438C374.049 163.976 375.63 163.32 377.117 162.486C377.445 162.301 377.853 162.324 378.16 162.544L382.324 165.518C382.744 165.857 383.172 165.786 383.457 165.503L388.5 160.46C388.796 160.164 388.82 159.699 388.556 159.377L385.542 155.162C385.322 154.855 385.3 154.448 385.484 154.118C386.317 152.638 386.972 151.057 387.434 149.417C387.537 149.053 387.84 148.782 388.213 148.72L393.26 147.878C393.73 147.83 394.049 147.478 394.049 147.067V139.937C394.049 139.526 393.731 139.172 393.325 139.132L388.214 138.282C387.841 138.22 387.539 137.949 387.435 137.585C386.973 135.945 386.317 134.364 385.485 132.886C385.301 132.556 385.323 132.149 385.543 131.842L388.519 127.676C388.821 127.304 388.796 126.84 388.502 126.545L383.459 121.5C383.175 121.216 382.687 121.192 382.378 121.445L378.161 124.46C377.854 124.68 377.446 124.702 377.118 124.517C375.637 123.686 374.056 123.03 372.417 122.566C372.054 122.464 371.783 122.16 371.721 121.788L370.88 116.741C370.829 116.262 370.483 115.95 370.065 115.95H362.934C362.515 115.95 362.17 116.261 362.129 116.674L361.281 121.784C361.22 122.156 360.948 122.459 360.585 122.562C358.943 123.027 357.362 123.682 355.885 124.514C355.554 124.698 355.147 124.676 354.841 124.456L350.673 121.48C350.254 121.144 349.824 121.211 349.54 121.497L344.497 126.54C344.203 126.835 344.18 127.299 344.444 127.62L347.457 131.838C347.677 132.146 347.699 132.553 347.515 132.882C346.684 134.36 346.028 135.942 345.563 137.582C345.461 137.945 345.157 138.216 344.785 138.279L339.739 139.12C339.261 139.171 338.95 139.517 338.95 139.935V147.065C338.95 147.483 339.26 147.828 339.672 147.868L344.784 148.718C345.156 148.779 345.459 149.051 345.562 149.415C346.023 151.046 346.679 152.628 347.514 154.118C347.698 154.447 347.676 154.853 347.456 155.16L344.482 159.324C344.177 159.698 344.201 160.162 344.496 160.458L349.539 165.5C349.826 165.786 350.313 165.811 350.62 165.556L354.837 162.542C355.007 162.422 355.206 162.361 355.404 162.361ZM366.501 155.17C360.065 155.17 354.828 149.934 354.828 143.499C354.828 137.063 360.065 131.826 366.501 131.826C372.937 131.826 378.173 137.063 378.173 143.499C378.172 149.933 372.936 155.17 366.501 155.17ZM366.501 133.776C361.14 133.776 356.778 138.138 356.778 143.499C356.778 148.859 361.14 153.22 366.501 153.22C371.861 153.22 376.223 148.859 376.223 143.499C376.222 138.138 371.861 133.776 366.501 133.776Z" fill="#F8991D"/>
<path d="M372.439 990H361.56C359.387 990 357.588 988.372 357.374 986.214L356.258 979.53C354.163 978.879 352.127 978.033 350.182 977.01L344.584 981.007C343.915 981.562 342.969 981.901 341.999 981.901C340.875 981.901 339.819 981.462 339.024 980.667L331.332 972.975C329.796 971.439 329.677 969.015 331.052 967.334L334.99 961.818C333.964 959.87 333.119 957.833 332.47 955.743L325.688 954.611C323.63 954.414 322 952.614 322 950.439V939.561C322 937.389 323.628 935.589 325.786 935.374L332.47 934.255C333.122 932.157 333.969 930.121 334.989 928.182L330.993 922.584C329.675 920.985 329.794 918.561 331.332 917.026L339.025 909.332C340.508 907.852 343.046 907.729 344.661 909.049L350.185 912.989C352.123 911.967 354.158 911.123 356.258 910.47L357.387 903.69C357.588 901.628 359.389 900 361.561 900H372.44C374.61 900 376.409 901.627 376.628 903.783L377.745 910.47C379.842 911.123 381.878 911.967 383.817 912.989L389.416 908.991C390.084 908.438 391.03 908.101 391.999 908.101C393.124 908.101 394.179 908.538 394.974 909.332L402.665 917.026C404.2 918.557 404.323 920.979 402.951 922.661L399.011 928.182C400.034 930.121 400.878 932.157 401.53 934.255L408.312 935.387C410.373 935.589 412 937.389 412 939.561V950.439C412 952.614 410.372 954.412 408.211 954.622L401.53 955.739C400.878 957.839 400.033 959.876 399.011 961.815L403.009 967.411C404.325 969.016 404.201 971.442 402.664 972.973L394.973 980.664C393.497 982.142 390.952 982.272 389.333 980.945L383.817 977.008C381.871 978.033 379.836 978.879 377.745 979.529L376.611 986.312C376.409 988.372 374.61 990 372.439 990ZM350.075 973.771C350.324 973.771 350.576 973.833 350.802 973.961C353.068 975.231 355.48 976.232 357.977 976.938C358.531 977.094 358.944 977.557 359.039 978.125L360.32 985.823C360.394 986.539 360.934 987.026 361.56 987.026H372.439C373.065 987.026 373.603 986.541 373.664 985.921L374.962 978.125C375.056 977.558 375.471 977.096 376.024 976.94C378.515 976.235 380.927 975.234 383.195 973.962C383.696 973.68 384.318 973.714 384.786 974.05L391.138 978.588C391.779 979.104 392.432 978.996 392.866 978.564L400.559 970.871C401.011 970.42 401.047 969.711 400.645 969.219L396.047 962.789C395.711 962.321 395.678 961.701 395.959 961.197C397.229 958.939 398.229 956.527 398.934 954.026C399.09 953.471 399.552 953.058 400.122 952.962L407.821 951.679C408.538 951.604 409.024 951.068 409.024 950.441V939.564C409.024 938.938 408.539 938.399 407.919 938.338L400.123 937.041C399.554 936.946 399.093 936.532 398.935 935.978C398.23 933.476 397.229 931.064 395.961 928.809C395.68 928.305 395.713 927.685 396.049 927.217L400.589 920.862C401.048 920.294 401.011 919.586 400.562 919.137L392.869 911.441C392.436 911.008 391.691 910.971 391.221 911.356L384.788 915.956C384.319 916.292 383.698 916.325 383.197 916.044C380.938 914.775 378.525 913.774 376.026 913.066C375.472 912.911 375.059 912.448 374.964 911.879L373.682 904.182C373.603 903.45 373.075 902.974 372.439 902.974H361.56C360.922 902.974 360.395 903.449 360.333 904.079L359.039 911.874C358.945 912.442 358.531 912.904 357.977 913.06C355.473 913.77 353.061 914.769 350.808 916.038C350.302 916.319 349.682 916.286 349.215 915.95L342.857 911.41C342.218 910.898 341.562 911.001 341.129 911.436L333.436 919.129C332.987 919.579 332.953 920.286 333.355 920.776L337.951 927.211C338.288 927.681 338.32 928.301 338.039 928.804C336.772 931.058 335.771 933.47 335.062 935.973C334.907 936.526 334.443 936.94 333.875 937.035L326.178 938.318C325.449 938.396 324.974 938.924 324.974 939.562V950.439C324.974 951.075 325.447 951.602 326.076 951.663L333.874 952.959C334.442 953.053 334.904 953.468 335.06 954.023C335.764 956.511 336.765 958.924 338.038 961.197C338.319 961.699 338.286 962.318 337.95 962.787L333.413 969.138C332.949 969.709 332.984 970.417 333.435 970.868L341.128 978.559C341.565 978.995 342.307 979.034 342.776 978.644L349.209 974.047C349.468 973.864 349.771 973.771 350.075 973.771ZM367.001 962.801C357.183 962.801 349.196 954.815 349.196 944.999C349.196 935.18 357.183 927.193 367.001 927.193C376.82 927.193 384.806 935.18 384.806 944.999C384.804 954.814 376.818 962.801 367.001 962.801ZM367.001 930.167C358.824 930.167 352.17 936.821 352.17 944.999C352.17 953.175 358.824 959.827 367.001 959.827C375.178 959.827 381.831 953.175 381.831 944.999C381.83 936.821 375.178 930.167 367.001 930.167Z" fill="#F8991D"/>
</svg>
